<svg width="44" height="44" viewBox="0 0 44 44" fill="none" xmlns="http://www.w3.org/2000/svg">
<path d="M31.625 19.25V11" stroke="#20BFFC" stroke-width="2" stroke-miterlimit="10" stroke-linecap="round" stroke-linejoin="round"/>
<path d="M17.325 16.5H13.75" stroke="#20BFFC" stroke-width="2" stroke-miterlimit="10" stroke-linecap="round" stroke-linejoin="round"/>
<path d="M12.375 19.25L15.4 11L18.2875 19.25" stroke="#20BFFC" stroke-width="2" stroke-miterlimit="10" stroke-linecap="round" stroke-linejoin="round"/>
<path d="M22 19.25V11H24.75C26.2625 11 27.5 12.2375 27.5 13.75C27.5 15.2625 26.2625 16.5 24.75 16.5H22" stroke="#20BFFC" stroke-width="2" stroke-miterlimit="10" stroke-linecap="round" stroke-linejoin="round"/>
<path d="M6.875 19.25V5.5H37.125V24.75H6.875" stroke="#0C4ADA" stroke-width="2" stroke-miterlimit="10" stroke-linecap="round" stroke-linejoin="round"/>
<path d="M22 24.75V34.375" stroke="#0C4ADA" stroke-width="2" stroke-miterlimit="10" stroke-linecap="round" stroke-linejoin="round"/>
<path d="M22 39.875C22.7594 39.875 23.375 39.2594 23.375 38.5C23.375 37.7406 22.7594 37.125 22 37.125C21.2406 37.125 20.625 37.7406 20.625 38.5C20.625 39.2594 21.2406 39.875 22 39.875Z" fill="#0C4ADA"/>
<path d="M28.875 24.75V30.25H34.375V34.375" stroke="#0C4ADA" stroke-width="2" stroke-miterlimit="10" stroke-linecap="round" stroke-linejoin="round"/>
<path d="M34.375 39.875C35.1344 39.875 35.75 39.2594 35.75 38.5C35.75 37.7406 35.1344 37.125 34.375 37.125C33.6156 37.125 33 37.7406 33 38.5C33 39.2594 33.6156 39.875 34.375 39.875Z" fill="#0C4ADA"/>
<path d="M15.125 24.75V30.25H9.625V34.375" stroke="#0C4ADA" stroke-width="2" stroke-miterlimit="10" stroke-linecap="round" stroke-linejoin="round"/>
<path d="M9.625 39.875C10.3844 39.875 11 39.2594 11 38.5C11 37.7406 10.3844 37.125 9.625 37.125C8.86561 37.125 8.25 37.7406 8.25 38.5C8.25 39.2594 8.86561 39.875 9.625 39.875Z" fill="#0C4ADA"/>
</svg>
