<svg width="15" height="16" viewBox="0 0 15 16" fill="none" xmlns="http://www.w3.org/2000/svg">
<path d="M13.8672 1.5C14.2682 1.90104 14.5312 2.38021 14.6562 2.9375C14.7812 3.49479 14.8438 4.14583 14.8438 4.89062V10.8203C14.8438 11.5703 14.7812 12.224 14.6562 12.7812C14.5312 13.3333 14.2682 13.8125 13.8672 14.2188C13.4609 14.6198 12.9766 14.8828 12.4141 15.0078C11.8568 15.138 11.2057 15.2031 10.4609 15.2031H4.52344C3.78385 15.2031 3.13281 15.138 2.57031 15.0078C2.01302 14.8828 1.53125 14.6198 1.125 14.2188C0.71875 13.8177 0.453125 13.3385 0.328125 12.7812C0.208333 12.224 0.148438 11.5703 0.148438 10.8203V4.875C0.148438 4.14062 0.210938 3.4974 0.335938 2.94531C0.460938 2.38802 0.723958 1.90625 1.125 1.5C1.53125 1.09896 2.01302 0.835938 2.57031 0.710938C3.13281 0.580729 3.78125 0.515625 4.51562 0.515625H10.4609C11.2057 0.515625 11.8568 0.580729 12.4141 0.710938C12.9766 0.835938 13.4609 1.09896 13.8672 1.5ZM3.66406 7.85938C3.66406 8.09896 3.74219 8.29688 3.89844 8.45312C4.05469 8.60417 4.25521 8.67969 4.5 8.67969H6.65625V10.8516C6.65625 11.0911 6.73438 11.2891 6.89062 11.4453C7.04688 11.6016 7.24479 11.6797 7.48438 11.6797C7.72396 11.6797 7.92188 11.6016 8.07812 11.4453C8.23958 11.2891 8.32031 11.0911 8.32031 10.8516V8.67969H10.4844C10.724 8.67969 10.9219 8.60417 11.0781 8.45312C11.2396 8.29688 11.3203 8.09896 11.3203 7.85938C11.3203 7.61458 11.2422 7.41406 11.0859 7.25781C10.9297 7.10156 10.7292 7.02344 10.4844 7.02344H8.32031V4.85938C8.32031 4.61458 8.23958 4.41406 8.07812 4.25781C7.92188 4.10156 7.72396 4.02344 7.48438 4.02344C7.24479 4.02344 7.04688 4.10156 6.89062 4.25781C6.73438 4.41406 6.65625 4.61458 6.65625 4.85938V7.02344H4.5C4.25521 7.02344 4.05469 7.10156 3.89844 7.25781C3.74219 7.41406 3.66406 7.61458 3.66406 7.85938Z" fill="white"/>
</svg>
