<svg width="44" height="44" viewBox="0 0 44 44" fill="none" xmlns="http://www.w3.org/2000/svg">
<path d="M18.2794 10.2244L19.3835 13.2907C20.61 16.6938 23.2899 19.3737 26.693 20.6002L29.7593 21.7043C30.0356 21.8047 30.0356 22.1966 29.7593 22.2956L26.693 23.3997C23.2899 24.6262 20.61 27.306 19.3835 30.7092L18.2794 33.7754C18.179 34.0518 17.7871 34.0518 17.6881 33.7754L16.584 30.7092C15.3575 27.306 12.6776 24.6262 9.27451 23.3997L6.20826 22.2956C5.93188 22.1952 5.93188 21.8033 6.20826 21.7043L9.27451 20.6002C12.6776 19.3737 15.3575 16.6938 16.584 13.2907L17.6881 10.2244C17.7871 9.94668 18.179 9.94668 18.2794 10.2244Z" fill="#1662E7"/>
<path d="M32.0817 2.85573L32.6413 4.40811C33.2628 6.13098 34.62 7.48811 36.3428 8.10961L37.8952 8.66923C38.0355 8.72011 38.0355 8.91811 37.8952 8.96898L36.3428 9.5286C34.62 10.1501 33.2628 11.5072 32.6413 13.2301L32.0817 14.7825C32.0308 14.9227 31.8328 14.9227 31.782 14.7825L31.2223 13.2301C30.6008 11.5072 29.2437 10.1501 27.5208 9.5286L25.9685 8.96898C25.8282 8.91811 25.8282 8.72011 25.9685 8.66923L27.5208 8.10961C29.2437 7.48811 30.6008 6.13098 31.2223 4.40811L31.782 2.85573C31.8328 2.71411 32.0322 2.71411 32.0817 2.85573Z" fill="#1662E7"/>
<path d="M32.0817 29.2185L32.6413 30.7708C33.2628 32.4937 34.62 33.8508 36.3428 34.4723L37.8952 35.032C38.0355 35.0828 38.0355 35.2808 37.8952 35.3317L36.3428 35.8913C34.62 36.5128 33.2628 37.87 32.6413 39.5928L32.0817 41.1452C32.0308 41.2855 31.8328 41.2855 31.782 41.1452L31.2223 39.5928C30.6008 37.87 29.2437 36.5128 27.5208 35.8913L25.9685 35.3317C25.8282 35.2808 25.8282 35.0828 25.9685 35.032L27.5208 34.4723C29.2437 33.8508 30.6008 32.4937 31.2223 30.7708L31.782 29.2185C31.8328 29.0782 32.0322 29.0782 32.0817 29.2185Z" fill="#1662E7"/>
</svg>
